<svg viewBox="0 0 41 24" fill="none" xmlns="http://www.w3.org/2000/svg">
<rect x="0.5" y="0.000488281" width="40" height="24" rx="4" fill="white"/>
<path d="M28.1702 18.2595V18.291H28.2017H28.2174C28.2174 18.291 28.2174 18.291 28.2174 18.2753C28.2174 18.2595 28.2174 18.2595 28.2174 18.2595H28.2017H28.1702ZM28.2017 18.2438C28.2174 18.2438 28.2331 18.2438 28.2331 18.2595C28.2331 18.2753 28.2488 18.2753 28.2488 18.291C28.2488 18.3067 28.2488 18.3067 28.2331 18.3224C28.2331 18.3224 28.2174 18.3381 28.2017 18.3381L28.2488 18.3853H28.2174L28.1859 18.3381H28.1702V18.3853H28.1388V18.2595H28.2017V18.2438ZM28.1859 18.401C28.2017 18.401 28.2174 18.401 28.2331 18.3853C28.2488 18.3853 28.2488 18.3696 28.2645 18.3696C28.2802 18.3696 28.2802 18.3538 28.2802 18.3381C28.2802 18.3224 28.296 18.3067 28.296 18.291C28.296 18.2753 28.296 18.2595 28.2802 18.2438C28.2802 18.2281 28.2645 18.2281 28.2645 18.2124C28.2488 18.1967 28.2488 18.1967 28.2331 18.1967C28.2174 18.1967 28.2017 18.1967 28.1859 18.1967C28.1702 18.1967 28.1545 18.1967 28.1388 18.1967C28.1231 18.1967 28.1074 18.2124 28.1074 18.2124C28.0916 18.2281 28.0916 18.2281 28.0916 18.2438C28.0916 18.2595 28.0759 18.2753 28.0759 18.291C28.0759 18.3067 28.0759 18.3224 28.0916 18.3381C28.0916 18.3538 28.1074 18.3538 28.1074 18.3696C28.1074 18.3853 28.1231 18.3853 28.1388 18.3853C28.1702 18.401 28.1702 18.401 28.1859 18.401ZM28.1859 18.181C28.2017 18.181 28.2174 18.181 28.2331 18.1967C28.2488 18.1967 28.2645 18.2124 28.2802 18.2281C28.296 18.2438 28.296 18.2595 28.3117 18.2753C28.3117 18.291 28.3274 18.3067 28.3274 18.3224C28.3274 18.3381 28.3274 18.3538 28.3117 18.3696C28.3117 18.3853 28.296 18.401 28.2802 18.4167C28.2645 18.4324 28.2488 18.4324 28.2331 18.4482C28.2174 18.4482 28.2017 18.4639 28.1859 18.4639C28.1702 18.4639 28.1545 18.4639 28.1388 18.4482C28.1231 18.4482 28.1074 18.4324 28.0916 18.4167C28.0759 18.401 28.0759 18.3853 28.0602 18.3696C28.0602 18.3538 28.0445 18.3381 28.0445 18.3224C28.0445 18.3067 28.0445 18.291 28.0602 18.2753C28.0602 18.2595 28.0759 18.2438 28.0916 18.2281C28.1074 18.2124 28.1231 18.2124 28.1388 18.1967C28.1545 18.181 28.1702 18.181 28.1859 18.181ZM15.9423 17.7094C15.9423 17.4737 16.0995 17.2851 16.3352 17.2851C16.571 17.2851 16.7282 17.4737 16.7282 17.7094C16.7282 17.9452 16.571 18.1338 16.3352 18.1338C16.0995 18.1338 15.9423 17.9452 15.9423 17.7094ZM17.0111 17.7094V17.0493H16.7282V17.2065C16.6339 17.0808 16.4924 17.0179 16.3195 17.0179C15.958 17.0179 15.6594 17.3008 15.6594 17.7094C15.6594 18.1181 15.9423 18.401 16.3195 18.401C16.5081 18.401 16.6496 18.3224 16.7282 18.2124V18.3696H17.0111V17.7094ZM26.6457 17.7094C26.6457 17.4737 26.8028 17.2851 27.0386 17.2851C27.2743 17.2851 27.4315 17.4737 27.4315 17.7094C27.4315 17.9452 27.2743 18.1338 27.0386 18.1338C26.8028 18.1338 26.6457 17.9452 26.6457 17.7094ZM27.7144 17.7094V16.5307H27.4315V17.2222C27.3372 17.0965 27.1958 17.0336 27.0229 17.0336C26.6614 17.0336 26.3628 17.3165 26.3628 17.7252C26.3628 18.1338 26.6457 18.4167 27.0229 18.4167C27.2115 18.4167 27.3529 18.3381 27.4315 18.2281V18.3853H27.7144V17.7094ZM20.5474 17.2694C20.736 17.2694 20.8461 17.3794 20.8775 17.5837H20.2017C20.2331 17.3951 20.3431 17.2694 20.5474 17.2694ZM20.5474 17.0179C20.1702 17.0179 19.8873 17.3008 19.8873 17.7094C19.8873 18.1338 20.1702 18.401 20.5632 18.401C20.7675 18.401 20.9404 18.3538 21.0975 18.2124L20.9561 18.0081C20.8461 18.1024 20.7046 18.1495 20.5789 18.1495C20.3903 18.1495 20.2331 18.0709 20.1859 17.8352H21.1604C21.1604 17.8038 21.1604 17.7566 21.1604 17.7252C21.1761 17.3008 20.9246 17.0179 20.5474 17.0179ZM24.0052 17.7094C24.0052 17.4737 24.1624 17.2851 24.3981 17.2851C24.6339 17.2851 24.791 17.4737 24.791 17.7094C24.791 17.9452 24.6339 18.1338 24.3981 18.1338C24.1466 18.1338 24.0052 17.9452 24.0052 17.7094ZM25.0582 17.7094V17.0493H24.7753V17.2065C24.681 17.0808 24.5396 17.0179 24.3667 17.0179C24.0052 17.0179 23.7066 17.3008 23.7066 17.7094C23.7066 18.1181 23.9895 18.401 24.3667 18.401C24.5553 18.401 24.6967 18.3224 24.7753 18.2124V18.3696H25.0582V17.7094ZM22.3863 17.7094C22.3863 18.1024 22.6692 18.401 23.0936 18.401C23.2979 18.401 23.4237 18.3538 23.5651 18.2438L23.4237 18.0081C23.3136 18.0867 23.2036 18.1338 23.0779 18.1338C22.8421 18.1338 22.685 17.9609 22.685 17.7094C22.685 17.458 22.8578 17.2851 23.0779 17.2851C23.2036 17.2851 23.3136 17.3322 23.4237 17.4108L23.5651 17.1751C23.4237 17.065 23.2979 17.0179 23.0936 17.0179C22.6692 17.0179 22.3863 17.3165 22.3863 17.7094ZM26.0641 17.0179C25.907 17.0179 25.7969 17.0965 25.7184 17.2065V17.0493H25.4354V18.3696H25.7184V17.6309C25.7184 17.4108 25.8127 17.2851 26.0013 17.2851C26.0641 17.2851 26.127 17.3008 26.1742 17.3165L26.2685 17.0493C26.2056 17.0336 26.127 17.0179 26.0641 17.0179ZM18.4099 17.1594C18.2685 17.065 18.0799 17.0179 17.8755 17.0179C17.5455 17.0179 17.3254 17.1751 17.3254 17.4423C17.3254 17.6623 17.4826 17.788 17.7812 17.8352L17.9227 17.8509C18.0799 17.8666 18.1584 17.9138 18.1584 17.9924C18.1584 18.0867 18.0484 18.1495 17.8598 18.1495C17.6555 18.1495 17.514 18.0867 17.4197 18.0081L17.2783 18.2281C17.4354 18.3381 17.6398 18.401 17.8441 18.401C18.2213 18.401 18.4413 18.2281 18.4413 17.9766C18.4413 17.7409 18.2685 17.6309 17.9855 17.5837L17.8441 17.568C17.7184 17.5523 17.6241 17.5208 17.6241 17.4423C17.6241 17.348 17.7184 17.2851 17.8755 17.2851C18.0484 17.2851 18.2056 17.348 18.2842 17.3951L18.4099 17.1594ZM22.1034 17.0179C21.9463 17.0179 21.8362 17.0965 21.7576 17.2065V17.0493H21.4747V18.3696H21.7576V17.6309C21.7576 17.4108 21.852 17.2851 22.0406 17.2851C22.1034 17.2851 22.1663 17.3008 22.2134 17.3165L22.3077 17.0493C22.2449 17.0336 22.1506 17.0179 22.1034 17.0179ZM19.6673 17.0493H19.1958V16.6564H18.9129V17.0493H18.6457V17.3165H18.9129V17.9138C18.9129 18.2124 19.0386 18.401 19.3686 18.401C19.4944 18.401 19.6358 18.3696 19.7301 18.3067L19.6516 18.0552C19.573 18.1024 19.4787 18.1338 19.4001 18.1338C19.2586 18.1338 19.2115 18.0395 19.2115 17.9138V17.3165H19.683V17.0493H19.6673ZM15.3922 18.3696V17.5523C15.3922 17.2379 15.1879 17.0336 14.8736 17.0336C14.7007 17.0336 14.5278 17.0808 14.4178 17.2694C14.3235 17.1279 14.182 17.0336 13.9777 17.0336C13.8362 17.0336 13.6948 17.0808 13.6005 17.2222V17.0651H13.3176V18.3853H13.6005V17.6623C13.6005 17.4265 13.7262 17.3165 13.9148 17.3165C14.1034 17.3165 14.1977 17.4423 14.1977 17.6623V18.3853H14.4806V17.6623C14.4806 17.4265 14.6064 17.3165 14.795 17.3165C14.9836 17.3165 15.0779 17.4423 15.0779 17.6623V18.3853H15.3922V18.3696Z" fill="#231F20"/>
<path d="M28.343 13.9912V13.8026H28.2959L28.233 13.9283L28.1701 13.8026H28.123V13.9912H28.1544V13.8498L28.2016 13.9755H28.233L28.2801 13.8498V13.9912H28.343ZM28.0287 13.9912V13.834H28.0916V13.8026H27.9344V13.834H27.9973V13.9912H28.0287Z" fill="#F49419"/>
<path d="M22.6598 14.8272H18.3344V7.05664H22.6598V14.8272Z" fill="#EB621D"/>
<path d="M18.614 10.9357C18.614 9.36404 19.3527 7.94951 20.5001 7.05363C19.6514 6.39352 18.5983 6.00059 17.451 6.00059C14.7162 6.00059 12.5001 8.2167 12.5001 10.9515C12.5001 13.6862 14.7162 15.9023 17.451 15.9023C18.5983 15.9023 19.6671 15.5094 20.5001 14.8493C19.3527 13.922 18.614 12.5075 18.614 10.9357Z" fill="#E41522"/>
<path d="M28.5001 10.9358C28.5001 13.6706 26.284 15.8867 23.5492 15.8867C22.4019 15.8867 21.3331 15.4938 20.5001 14.8337C21.6474 13.9221 22.3861 12.5233 22.3861 10.9516C22.3861 9.37985 21.6474 7.96531 20.5001 7.06944C21.3488 6.40932 22.4019 6.0164 23.5492 6.0164C26.284 5.98496 28.5001 8.20107 28.5001 10.9358Z" fill="#F59E1F"/>
</svg>
