<svg viewBox="0 0 41 24" fill="none" xmlns="http://www.w3.org/2000/svg">
<rect x="0.5" y="0.000488281" width="40" height="24" rx="4" fill="white"/>
<path d="M18.0981 9.11546L15.4787 15.3589H13.7692L12.4795 10.3751C12.3995 10.0702 12.3345 9.95525 12.0946 9.82528C11.7047 9.61533 11.0649 9.41538 10.5 9.29541L10.54 9.11546H13.2893C13.6392 9.11546 13.9541 9.3504 14.0341 9.7503L14.7139 13.3644L16.3935 9.11546H18.0981ZM24.7914 13.3194C24.7964 11.6698 22.512 11.5798 22.527 10.845C22.532 10.6201 22.7469 10.3851 23.2118 10.3202C23.4418 10.2902 24.0816 10.2652 24.8064 10.6001L25.0913 9.27542C24.7014 9.13545 24.2016 9.00049 23.5817 9.00049C21.9871 9.00049 20.8624 9.85028 20.8524 11.065C20.8424 11.9647 21.6522 12.4646 22.2671 12.7645C22.8969 13.0695 23.1068 13.2694 23.1068 13.5394C23.1018 13.9592 22.607 14.1442 22.1421 14.1492C21.3323 14.1642 20.8574 13.9293 20.4825 13.7543L20.1876 15.124C20.5625 15.2989 21.2623 15.4489 21.9821 15.4539C23.6767 15.4589 24.7864 14.6191 24.7914 13.3194ZM29.0054 15.3589H30.5L29.2003 9.11546H27.8207C27.5107 9.11546 27.2508 9.29541 27.1308 9.57534L24.7064 15.3639H26.401L26.7359 14.4291H28.8104L29.0054 15.3589ZM27.2008 13.1494L28.0506 10.805L28.5405 13.1494H27.2008ZM20.4125 9.11546L19.0778 15.3589H17.4633L18.7979 9.11546H20.4125Z" fill="url(#paint0_linear_6326_6855)"/>
<defs>
<linearGradient id="paint0_linear_6326_6855" x1="10.5025" y1="12.2297" x2="30.5025" y2="12.2297" gradientUnits="userSpaceOnUse">
<stop stop-color="#282457"/>
<stop offset="1" stop-color="#134391"/>
</linearGradient>
</defs>
</svg>
