<svg viewBox="0 0 41 24" fill="none" xmlns="http://www.w3.org/2000/svg">
<rect x="0.5" y="0.000488281" width="40" height="24" rx="4" fill="white"/>
<path d="M16.635 12.6857C16.625 12.7107 16.475 13.2207 16.115 13.7407C15.8 14.1907 15.475 14.6457 14.96 14.6507C14.455 14.6607 14.295 14.3557 13.715 14.3557C13.14 14.3557 12.96 14.6407 12.48 14.6607C11.985 14.6807 11.605 14.1707 11.29 13.7207C10.645 12.8007 10.15 11.1157 10.81 9.98072C11.14 9.41572 11.73 9.06072 12.37 9.05072C12.855 9.04072 13.315 9.37072 13.615 9.37072C13.91 9.37072 14.47 8.97072 15.06 9.03072C15.305 9.04072 15.995 9.13072 16.44 9.76573C16.405 9.78573 15.615 10.2407 15.625 11.1807C15.635 12.3057 16.625 12.6807 16.635 12.6857ZM15.07 7.24072C14.69 7.25572 14.23 7.49072 13.96 7.80072C13.715 8.08072 13.505 8.52072 13.56 8.95072C13.985 8.98072 14.415 8.74072 14.68 8.42572C14.94 8.11072 15.115 7.67572 15.07 7.24072ZM25.965 13.9957C25.97 14.1907 25.99 14.3757 26.025 14.5557H25.58L25.51 13.8757H25.49C25.43 13.9707 25.35 14.0607 25.26 14.1557C25.165 14.2507 25.055 14.3357 24.935 14.4107C24.81 14.4857 24.67 14.5507 24.51 14.5957C24.35 14.6407 24.18 14.6657 23.99 14.6657C23.755 14.6657 23.55 14.6257 23.37 14.5507C23.19 14.4757 23.045 14.3757 22.93 14.2507C22.815 14.1257 22.73 13.9857 22.675 13.8257C22.62 13.6657 22.59 13.5057 22.59 13.3457C22.59 12.7757 22.83 12.3407 23.31 12.0357C23.79 11.7307 24.515 11.5807 25.485 11.5957V11.4657C25.485 11.3407 25.475 11.1957 25.45 11.0307C25.425 10.8657 25.375 10.7107 25.295 10.5657C25.215 10.4207 25.095 10.2957 24.93 10.1957C24.77 10.0957 24.55 10.0457 24.275 10.0457C24.065 10.0457 23.86 10.0757 23.655 10.1407C23.45 10.2057 23.265 10.2907 23.095 10.4057L22.945 10.0557C23.16 9.91073 23.38 9.80572 23.61 9.74072C23.84 9.67572 24.075 9.64573 24.325 9.64573C24.66 9.64573 24.935 9.70072 25.145 9.81572C25.355 9.93072 25.525 10.0757 25.645 10.2557C25.765 10.4357 25.85 10.6357 25.89 10.8607C25.935 11.0857 25.955 11.3057 25.955 11.5257V13.4207C25.955 13.6107 25.955 13.8057 25.965 13.9957ZM25.48 11.9857C25.225 11.9807 24.955 11.9907 24.68 12.0157C24.4 12.0407 24.145 12.1007 23.91 12.1907C23.675 12.2807 23.48 12.4107 23.325 12.5857C23.17 12.7607 23.095 12.9907 23.095 13.2757C23.095 13.6157 23.19 13.8657 23.39 14.0257C23.585 14.1857 23.805 14.2657 24.045 14.2657C24.24 14.2657 24.415 14.2407 24.57 14.1857C24.725 14.1307 24.86 14.0607 24.975 13.9707C25.09 13.8807 25.185 13.7807 25.26 13.6657C25.34 13.5507 25.395 13.4357 25.435 13.3157C25.47 13.1807 25.485 13.0857 25.485 13.0257V11.9857H25.48ZM22.05 8.89072C22.14 9.11072 22.185 9.36572 22.185 9.65072C22.185 9.99572 22.125 10.3007 22 10.5607C21.875 10.8207 21.705 11.0407 21.49 11.2157C21.275 11.3907 21.02 11.5257 20.725 11.6107C20.43 11.6957 20.105 11.7407 19.755 11.7407C19.44 11.7407 19.175 11.7157 18.96 11.6707V14.5557H18.485V7.88572C18.68 7.85072 18.895 7.82072 19.13 7.79572C19.365 7.77072 19.625 7.75572 19.905 7.75572C20.31 7.75572 20.655 7.80572 20.95 7.90072C21.245 7.99572 21.485 8.13572 21.67 8.31572C21.83 8.48072 21.96 8.67072 22.05 8.89072ZM21.7 9.69072C21.7 9.43072 21.655 9.20072 21.57 9.01072C21.48 8.81572 21.36 8.66072 21.195 8.53572C21.035 8.41072 20.84 8.32072 20.62 8.25572C20.4 8.19072 20.155 8.16072 19.885 8.16072C19.67 8.16072 19.485 8.17072 19.33 8.18572C19.175 8.20072 19.05 8.22072 18.955 8.24072V11.2557C19.07 11.2907 19.195 11.3107 19.34 11.3257C19.48 11.3407 19.63 11.3457 19.795 11.3457C20.4 11.3457 20.87 11.2057 21.2 10.9257C21.535 10.6407 21.7 10.2307 21.7 9.69072ZM29.995 9.75072L28.845 12.8557C28.77 13.0507 28.705 13.2407 28.645 13.4207C28.585 13.6057 28.53 13.7707 28.485 13.9157H28.465C28.42 13.7607 28.365 13.5957 28.305 13.4107C28.245 13.2257 28.18 13.0507 28.115 12.8757L26.885 9.75072H26.38L28.125 14.2057C28.165 14.3007 28.185 14.3707 28.185 14.4157C28.185 14.4507 28.165 14.5207 28.125 14.6257C28.01 14.9057 27.88 15.1457 27.735 15.3407C27.59 15.5357 27.46 15.6957 27.335 15.8157C27.195 15.9557 27.05 16.0707 26.9 16.1557C26.75 16.2407 26.62 16.3107 26.495 16.3657L26.655 16.7557C26.71 16.7357 26.815 16.6857 26.975 16.6107C27.135 16.5357 27.305 16.4107 27.495 16.2457C27.655 16.1057 27.805 15.9407 27.935 15.7557C28.065 15.5707 28.195 15.3557 28.325 15.1107C28.455 14.8657 28.58 14.5957 28.705 14.2907C28.83 13.9857 28.96 13.6457 29.105 13.2757L30.5 9.75072H29.995Z" fill="#020203"/>
</svg>
