<svg viewBox="0 0 41 24" fill="none" xmlns="http://www.w3.org/2000/svg">
<rect x="0.5" y="0.000488281" width="40" height="24" rx="4" fill="white"/>
<path d="M26.25 16.5705C26.475 16.9055 26.555 17.3105 26.465 17.7055C26.38 18.1005 26.145 18.4305 25.8 18.6455C25.745 18.6755 20.25 22.0005 19 22.0005C18.295 22.0005 16.89 21.6605 15.65 21.3605C14.995 21.2005 14.175 21.0005 14 21.0005C13.635 21.0005 12.03 21.3005 11.1 21.4905C10.83 21.5455 10.565 21.3705 10.51 21.1005C10.455 20.8305 10.63 20.5655 10.9 20.5105C11.155 20.4605 13.415 20.0005 14 20.0005C14.275 20.0005 14.835 20.1355 15.885 20.3855C16.95 20.6455 18.415 21.0005 19 21.0005C19.575 20.9955 22.93 19.2305 25.275 17.7855C25.385 17.7205 25.46 17.6105 25.485 17.4855C25.51 17.3605 25.49 17.2305 25.415 17.1205C25.27 16.9005 24.98 16.8405 24.755 16.9805C24.255 17.3005 22.245 18.4955 21.585 18.4955H17.735C17.46 18.4955 17.235 18.2705 17.235 17.9955C17.235 17.7205 17.46 17.4955 17.735 17.4955H20.5C20.825 17.4955 21 17.3205 21 16.9955C21 16.6705 20.825 16.4955 20.5 16.4955C20.445 16.4955 19.01 16.5155 18.48 16.4955C17.835 16.4705 17.43 16.3505 17.035 16.2355C16.625 16.1155 16.235 16.0005 15.5 16.0005C14.215 16.0005 13.78 16.3605 13.465 16.6255C13.255 16.8005 13.015 17.0005 12.65 17.0005H11C10.725 17.0005 10.5 16.7755 10.5 16.5005C10.5 16.2255 10.725 16.0005 11 16.0005H12.65C12.665 15.9905 12.755 15.9155 12.825 15.8555C13.21 15.5355 13.855 15.0005 15.5 15.0005C16.38 15.0005 16.88 15.1505 17.32 15.2805C17.68 15.3905 17.995 15.4805 18.515 15.5005C19.015 15.5205 20.475 15.5005 20.49 15.5005C21.38 15.5005 21.995 16.1155 21.995 17.0005C21.995 17.1305 21.98 17.2555 21.955 17.3705C22.48 17.1455 23.415 16.6505 24.215 16.1405C24.905 15.7105 25.795 15.8955 26.25 16.5705ZM30.5 7.00053C30.5 7.27553 30.275 7.50053 30 7.50053H29.145C29.005 7.59053 28.76 7.73553 28.475 7.88553C28.485 7.92053 28.5 7.96053 28.5 8.00053V13.5005C28.5 13.7755 28.275 14.0005 28 14.0005H13C12.725 14.0005 12.5 13.7755 12.5 13.5005V6.00053C12.5 5.72553 12.725 5.50053 13 5.50053H17.51C17.54 5.45053 17.585 5.40053 17.635 5.36053C19.66 3.86553 21.06 2.93553 21.79 2.60053C23.03 2.03053 23.61 1.91553 26.525 2.05553C27.29 2.09053 27.94 2.21053 28.51 2.31553C29.06 2.41553 29.53 2.50053 30 2.50053C30.275 2.50053 30.5 2.72553 30.5 3.00053C30.5 3.27553 30.275 3.50053 30 3.50053C29.44 3.50053 28.9 3.40053 28.33 3.29553C27.76 3.19053 27.175 3.08553 26.475 3.05053C23.625 2.91053 23.24 3.03053 22.205 3.50553C21.665 3.75553 20.59 4.45553 19.14 5.49553H22C22.025 5.49553 22.05 5.50553 22.075 5.51053L22.72 5.08053C22.95 4.92553 23.26 4.99053 23.415 5.22053C23.57 5.45053 23.505 5.76053 23.275 5.91553L21.03 7.41053C20.94 7.47053 20.88 7.56553 20.855 7.67053C20.835 7.77553 20.855 7.88553 20.915 7.97553C21.04 8.16053 21.285 8.21553 21.47 8.09553C21.47 8.09553 21.47 8.09553 21.475 8.09553C21.5 8.08053 21.525 8.06053 21.555 8.04553C22.055 7.73053 22.73 7.32053 23.275 7.05053C23.4 6.99053 23.54 6.98053 23.67 7.02553C24.76 7.42053 25.535 7.50053 26.5 7.50053C27.195 7.50053 28.34 6.84053 28.725 6.58553C28.805 6.53053 28.9 6.50053 29 6.50053H30C30.275 6.50053 30.5 6.72553 30.5 7.00053ZM20.115 8.56553C19.615 8.73053 19.25 9.20553 19.25 9.75053C19.25 10.4405 19.81 11.0005 20.5 11.0005C21.19 11.0005 21.75 10.4405 21.75 9.75053C21.75 9.52553 21.685 9.31053 21.575 9.12553C21.47 9.15053 21.36 9.16553 21.255 9.16553C20.815 9.16553 20.39 8.95053 20.115 8.56553ZM13.5 6.50053V7.47553C13.99 7.37553 14.375 6.99053 14.475 6.50053H13.5ZM13.5 13.0005H14.475C14.375 12.5105 13.99 12.1255 13.5 12.0255V13.0005ZM27.5 13.0005V12.0255C27.01 12.1255 26.625 12.5105 26.525 13.0005H27.5ZM27.5 8.30553C27.16 8.42053 26.815 8.50053 26.5 8.50053C25.51 8.50053 24.655 8.42053 23.54 8.04553C23.195 8.22553 22.81 8.45553 22.46 8.66553C22.645 8.99553 22.75 9.36553 22.75 9.75053C22.75 10.9905 21.74 12.0005 20.5 12.0005C19.26 12.0005 18.25 10.9905 18.25 9.75053C18.25 8.74553 18.93 7.87053 19.865 7.59553C19.87 7.55553 19.87 7.51553 19.875 7.48053C19.95 7.11053 20.16 6.79553 20.475 6.58553L20.6 6.50053H15.475C15.36 7.54053 14.54 8.36053 13.5 8.47553V11.0255C14.54 11.1405 15.36 11.9605 15.475 13.0005H25.525C25.64 11.9605 26.46 11.1405 27.5 11.0255V8.30553Z" fill="#292929"/>
</svg>
